<svg width="600" height="600" viewBox="0 0 600 600" fill="none" xmlns="http://www.w3.org/2000/svg">
<g filter="url(#filter0_i_2_30)">
<circle cx="300" cy="300" r="300" fill="#1ED760"/>
</g>
<g filter="url(#filter1_d_2_30)">
<mask id="path-2-inside-1_2_30" fill="white">
<path d="M340.897 371.26V357C393.026 357 435.311 314.707 435.311 262.79C435.311 210.873 393.188 168.691 341.059 168.691H124.858L189.787 233.587C189.787 233.587 193.618 237.325 188.385 242.418C183.152 247.51 179.314 244.017 179.314 244.017L96 160.811L179.78 76.9091C179.78 76.9091 184.199 73.8535 188.908 78.9461C193.618 84.0387 190.252 87.3388 190.252 87.3388L123.228 154.321H341.059C401.101 154.321 449.74 202.993 449.74 262.79C449.74 322.588 400.939 371.26 340.897 371.26Z"/>
</mask>
<path d="M340.897 371.26V357C393.026 357 435.311 314.707 435.311 262.79C435.311 210.873 393.188 168.691 341.059 168.691H124.858L189.787 233.587C189.787 233.587 193.618 237.325 188.385 242.418C183.152 247.51 179.314 244.017 179.314 244.017L96 160.811L179.78 76.9091C179.78 76.9091 184.199 73.8535 188.908 78.9461C193.618 84.0387 190.252 87.3388 190.252 87.3388L123.228 154.321H341.059C401.101 154.321 449.74 202.993 449.74 262.79C449.74 322.588 400.939 371.26 340.897 371.26Z" fill="#121212"/>
<path d="M340.897 371.26V372.26H339.897V371.26H340.897ZM340.897 357H339.897V356H340.897V357ZM124.858 168.691L124.151 169.398L122.442 167.691H124.858V168.691ZM189.787 233.587L189.089 234.303L189.08 234.294L189.787 233.587ZM179.314 244.017L178.641 244.756L178.624 244.741L178.608 244.724L179.314 244.017ZM96 160.811L95.2934 161.518L94.5858 160.812L95.2924 160.104L96 160.811ZM179.78 76.9091L179.072 76.2025L179.136 76.1382L179.211 76.0866L179.78 76.9091ZM190.252 87.3388L189.545 86.6315L189.552 86.6248L190.252 87.3388ZM123.228 154.321V155.321H120.813L122.522 153.614L123.228 154.321ZM339.897 371.26V357H341.897V371.26H339.897ZM340.897 356C392.475 356 434.311 314.154 434.311 262.79H436.311C436.311 315.261 393.577 358 340.897 358V356ZM434.311 262.79C434.311 211.426 392.637 169.691 341.059 169.691V167.691C393.74 167.691 436.311 210.32 436.311 262.79H434.311ZM341.059 169.691H124.858V167.691H341.059V169.691ZM125.564 167.984L190.494 232.88L189.08 234.294L124.151 169.398L125.564 167.984ZM178.608 244.724L95.2934 161.518L96.7066 160.103L180.021 243.309L178.608 244.724ZM95.2924 160.104L179.072 76.2025L180.488 77.6157L96.7076 161.517L95.2924 160.104ZM190.959 88.0462L123.935 155.028L122.522 153.614L189.545 86.6315L190.959 88.0462ZM123.228 153.321H341.059V155.321H123.228V153.321ZM341.059 153.321C401.652 153.321 450.74 202.44 450.74 262.79H448.74C448.74 203.546 400.55 155.321 341.059 155.321V153.321ZM450.74 262.79C450.74 323.143 401.488 372.26 340.897 372.26V370.26C400.39 370.26 448.74 322.032 448.74 262.79H450.74ZM179.78 76.9091C179.211 76.0866 179.212 76.0862 179.212 76.0858C179.212 76.0857 179.213 76.0853 179.213 76.085C179.214 76.0844 179.215 76.0838 179.216 76.0831C179.218 76.0818 179.22 76.0803 179.223 76.0786C179.228 76.0753 179.234 76.0712 179.241 76.0664C179.255 76.0569 179.274 76.0447 179.297 76.0302C179.343 76.0011 179.407 75.9625 179.486 75.9175C179.645 75.8275 179.871 75.7106 180.154 75.5906C180.718 75.3513 181.525 75.0942 182.503 75.0207C184.508 74.8699 187.086 75.5025 189.643 78.2671L188.174 79.6251C186.021 77.2972 184.035 76.9112 182.653 77.0151C181.938 77.0688 181.346 77.2574 180.934 77.4319C180.729 77.5187 180.573 77.6008 180.472 77.658C180.421 77.6865 180.385 77.7087 180.364 77.7218C180.354 77.7284 180.347 77.7327 180.344 77.7345C180.343 77.7354 180.343 77.7356 180.343 77.7351C180.344 77.7349 180.344 77.7345 180.345 77.7339C180.346 77.7336 180.346 77.7332 180.347 77.7329C180.347 77.7327 180.348 77.7324 180.348 77.7323C180.348 77.7319 180.349 77.7316 179.78 76.9091ZM189.643 78.2671C192.168 80.9983 192.647 83.4 192.332 85.2225C192.179 86.1063 191.848 86.7984 191.554 87.2718C191.406 87.509 191.266 87.6941 191.158 87.8243C191.105 87.8895 191.058 87.9413 191.023 87.9794C191.006 87.9985 190.991 88.0142 190.979 88.0264C190.973 88.0325 190.968 88.0378 190.963 88.0422C190.961 88.0444 190.959 88.0464 190.957 88.0482C190.956 88.0491 190.956 88.0499 190.955 88.0507C190.954 88.0511 190.954 88.0516 190.954 88.0518C190.953 88.0523 190.953 88.0528 190.252 87.3388C189.552 86.6248 189.552 86.6253 189.551 86.6258C189.551 86.6259 189.551 86.6264 189.55 86.6267C189.55 86.6273 189.549 86.6278 189.549 86.6283C189.548 86.6292 189.547 86.63 189.546 86.6306C189.545 86.6318 189.545 86.6323 189.545 86.632C189.546 86.6314 189.549 86.628 189.555 86.6216C189.567 86.6089 189.588 86.5849 189.617 86.5499C189.675 86.4797 189.761 86.3672 189.856 86.2154C190.045 85.9109 190.261 85.4597 190.361 84.8818C190.551 83.7812 190.358 81.9864 188.174 79.6251L189.643 78.2671ZM189.787 233.587C190.485 232.871 190.486 232.872 190.486 232.872C190.486 232.872 190.487 232.873 190.487 232.873C190.488 232.874 190.489 232.875 190.49 232.876C190.492 232.877 190.494 232.879 190.496 232.882C190.5 232.886 190.506 232.891 190.512 232.898C190.524 232.91 190.54 232.927 190.559 232.947C190.597 232.987 190.647 233.043 190.706 233.113C190.824 233.253 190.979 233.453 191.144 233.709C191.472 234.217 191.848 234.962 192.03 235.903C192.408 237.856 191.901 240.392 189.083 243.134L187.688 241.701C190.102 239.351 190.296 237.472 190.066 236.282C189.945 235.652 189.69 235.144 189.463 234.793C189.351 234.618 189.248 234.486 189.177 234.402C189.141 234.36 189.114 234.33 189.098 234.314C189.091 234.305 189.086 234.3 189.084 234.298C189.083 234.297 189.083 234.297 189.084 234.298C189.084 234.298 189.085 234.299 189.085 234.3C189.086 234.3 189.086 234.301 189.087 234.301C189.087 234.301 189.088 234.302 189.088 234.302C189.088 234.302 189.089 234.303 189.787 233.587ZM189.083 243.134C186.273 245.868 183.704 246.404 181.742 246.116C180.789 245.976 180.03 245.649 179.506 245.355C179.244 245.208 179.038 245.067 178.893 244.96C178.821 244.906 178.763 244.86 178.721 244.825C178.7 244.807 178.683 244.793 178.669 244.781C178.663 244.775 178.657 244.77 178.652 244.766C178.65 244.764 178.648 244.762 178.646 244.761C178.645 244.76 178.644 244.759 178.644 244.758C178.643 244.758 178.643 244.757 178.642 244.757C178.642 244.757 178.641 244.756 179.314 244.017C179.988 243.277 179.987 243.277 179.987 243.276C179.986 243.276 179.986 243.276 179.986 243.276C179.985 243.275 179.985 243.275 179.984 243.274C179.983 243.273 179.983 243.273 179.982 243.272C179.981 243.271 179.981 243.271 179.982 243.272C179.983 243.273 179.988 243.278 179.997 243.285C180.013 243.299 180.043 243.323 180.086 243.354C180.171 243.418 180.306 243.51 180.485 243.611C180.845 243.813 181.372 244.041 182.033 244.138C183.298 244.323 185.264 244.06 187.688 241.701L189.083 243.134Z" fill="#112211" fill-opacity="0.133333" mask="url(#path-2-inside-1_2_30)"/>
<path d="M339.478 205.242V210.176C357.839 210.176 372.732 224.81 372.732 242.774C372.732 260.739 357.896 275.335 339.535 275.335H283.321L306.19 252.879C306.19 252.879 308.217 251.584 306.19 249.547C304.162 247.51 302.501 249.271 302.501 249.271L273.157 278.062L302.665 307.093C302.665 307.093 304.483 308.948 306.354 307.128C308.224 305.307 306.354 303.484 306.354 303.484L282.747 280.307H339.535C360.683 280.307 377.814 263.466 377.814 242.774C377.814 222.083 360.626 205.242 339.478 205.242Z" fill="#121212"/>
<path d="M273.871 278.062L302.851 249.627L302.858 249.621L302.863 249.616C302.863 249.616 302.863 249.616 302.863 249.616L302.863 249.615L302.864 249.615L302.864 249.614L302.87 249.609C302.873 249.605 302.877 249.601 302.883 249.597C302.89 249.59 302.899 249.581 302.91 249.572C302.947 249.538 303.006 249.489 303.082 249.435C303.237 249.325 303.455 249.2 303.719 249.127C304.206 248.992 304.944 249.004 305.835 249.9C306.295 250.362 306.489 250.746 306.558 251.041C306.625 251.33 306.581 251.573 306.492 251.777C306.4 251.988 306.256 252.161 306.127 252.286C306.064 252.347 306.008 252.393 305.969 252.423C305.95 252.437 305.935 252.448 305.927 252.454L305.92 252.459L305.919 252.459L305.918 252.459L305.918 252.459L305.918 252.46L305.918 252.46L305.877 252.486L305.839 252.523L282.971 274.978L282.098 275.835H283.321H339.535C358.163 275.835 373.232 261.024 373.232 242.774C373.232 224.689 358.376 209.942 339.978 209.679V205.745C360.63 206.008 377.314 222.532 377.314 242.774C377.314 263.181 360.416 279.807 339.535 279.807H282.747H281.524L282.397 280.664L306.003 303.841L306.004 303.841L306.004 303.842L306.004 303.842L306.004 303.842L306.005 303.842L306.014 303.852C306.023 303.861 306.038 303.877 306.057 303.899C306.095 303.942 306.151 304.008 306.213 304.093C306.34 304.266 306.486 304.505 306.582 304.785C306.677 305.063 306.719 305.369 306.653 305.69C306.588 306.007 306.41 306.375 306.005 306.769C305.6 307.164 305.222 307.337 304.895 307.399C304.565 307.462 304.252 307.417 303.97 307.32C303.687 307.223 303.446 307.076 303.273 306.95C303.187 306.888 303.121 306.833 303.078 306.795C303.056 306.776 303.041 306.761 303.031 306.752L303.022 306.743L303.022 306.743L303.022 306.743L303.022 306.743L303.021 306.742L303.021 306.742L303.016 306.737L273.871 278.062Z" stroke="#112211" stroke-opacity="0.133333"/>
<line x1="228.912" y1="166.535" x2="228.912" y2="523.015" stroke="#121212" stroke-width="14"/>
<line x1="338.605" y1="368.35" x2="440.794" y2="519.072" stroke="#112211" stroke-width="14"/>
<mask id="path-8-inside-2_2_30" fill="white">
<path d="M341.707 357C340.264 357 338.835 357.251 337.502 357.737C336.169 358.223 334.957 358.936 333.937 359.834C332.916 360.733 332.107 361.8 331.555 362.974C331.002 364.147 330.718 365.406 330.718 366.676C330.718 367.947 331.002 369.205 331.555 370.379C332.107 371.553 332.916 372.62 333.937 373.518C334.957 374.417 336.169 375.129 337.502 375.616C338.835 376.102 340.264 376.352 341.707 376.352L341.707 366.676V357Z"/>
</mask>
<path d="M341.707 357C340.264 357 338.835 357.251 337.502 357.737C336.169 358.223 334.957 358.936 333.937 359.834C332.916 360.733 332.107 361.8 331.555 362.974C331.002 364.147 330.718 365.406 330.718 366.676C330.718 367.947 331.002 369.205 331.555 370.379C332.107 371.553 332.916 372.62 333.937 373.518C334.957 374.417 336.169 375.129 337.502 375.616C338.835 376.102 340.264 376.352 341.707 376.352L341.707 366.676V357Z" fill="#121212" stroke="#112211" stroke-opacity="0.133333" stroke-width="2" mask="url(#path-8-inside-2_2_30)"/>
</g>
<defs>
<filter id="filter0_i_2_30" x="0" y="-2" width="602" height="602" filterUnits="userSpaceOnUse" color-interpolation-filters="sRGB">
<feFlood flood-opacity="0" result="BackgroundImageFix"/>
<feBlend mode="normal" in="SourceGraphic" in2="BackgroundImageFix" result="shape"/>
<feColorMatrix in="SourceAlpha" type="matrix" values="0 0 0 0 0 0 0 0 0 0 0 0 0 0 0 0 0 0 127 0" result="hardAlpha"/>
<feMorphology radius="3" operator="erode" in="SourceAlpha" result="effect1_innerShadow_2_30"/>
<feOffset dx="2" dy="-2"/>
<feGaussianBlur stdDeviation="2.4"/>
<feComposite in2="hardAlpha" operator="arithmetic" k2="-1" k3="1"/>
<feColorMatrix type="matrix" values="0 0 0 0 0.117647 0 0 0 0 0.843137 0 0 0 0 0.376471 0 0 0 0.53 0"/>
<feBlend mode="normal" in2="shape" result="effect1_innerShadow_2_30"/>
</filter>
<filter id="filter1_d_2_30" x="51.7" y="31.7" width="442.34" height="535.615" filterUnits="userSpaceOnUse" color-interpolation-filters="sRGB">
<feFlood flood-opacity="0" result="BackgroundImageFix"/>
<feColorMatrix in="SourceAlpha" type="matrix" values="0 0 0 0 0 0 0 0 0 0 0 0 0 0 0 0 0 0 127 0" result="hardAlpha"/>
<feOffset/>
<feGaussianBlur stdDeviation="22.15"/>
<feComposite in2="hardAlpha" operator="out"/>
<feColorMatrix type="matrix" values="0 0 0 0 0.0666667 0 0 0 0 0.133333 0 0 0 0 0.0666667 0 0 0 1 0"/>
<feBlend mode="normal" in2="BackgroundImageFix" result="effect1_dropShadow_2_30"/>
<feBlend mode="normal" in="SourceGraphic" in2="effect1_dropShadow_2_30" result="shape"/>
</filter>
</defs>
</svg>
