<svg width="3840" height="2160" viewBox="0 0 3840 2160" fill="none" xmlns="http://www.w3.org/2000/svg">
<mask id="mask0_8_41" style="mask-type:alpha" maskUnits="userSpaceOnUse" x="0" y="0" width="3840" height="2160">
<rect y="-6.10352e-05" width="3840" height="2160" fill="#121212"/>
</mask>
<g mask="url(#mask0_8_41)">
<rect y="-6.10352e-05" width="3840" height="2160" fill="#121212"/>
<g clip-path="url(#clip0_8_41)">
<g clip-path="url(#clip1_8_41)">
<mask id="mask1_8_41" style="mask-type:luminance" maskUnits="userSpaceOnUse" x="2587" y="1312" width="1640" height="1580">
<path d="M4227 1312H2587V2891.11H4227V1312Z" fill="white"/>
</mask>
<g mask="url(#mask1_8_41)">
<path d="M3407 2891.11C3859.87 2891.11 4227 2537.62 4227 2101.56C4227 1665.5 3859.87 1312 3407 1312C2954.13 1312 2587 1665.5 2587 2101.56C2587 2537.62 2954.13 2891.11 3407 2891.11Z" fill="#383838"/>
<path d="M3407 2338.42C3542.86 2338.42 3653 2232.37 3653 2101.56C3653 1970.74 3542.86 1864.69 3407 1864.69C3271.14 1864.69 3161 1970.74 3161 2101.56C3161 2232.37 3271.14 2338.42 3407 2338.42Z" fill="black"/>
<path d="M3407 2257.89C3497.57 2257.89 3571 2187.19 3571 2099.98C3571 2012.76 3497.57 1942.07 3407 1942.07C3316.43 1942.07 3243 2012.76 3243 2099.98C3243 2187.19 3316.43 2257.89 3407 2257.89Z" fill="#1F1F1F"/>
<path d="M3858 2115.77C3858 2223.19 3816.65 2326.79 3741.95 2406.57C3667.24 2486.34 3564.48 2536.63 3453.52 2547.71C3342.55 2558.79 3231.26 2529.87 3141.14 2466.55C3051.03 2403.23 2988.49 2310 2965.6 2204.87" stroke="#D8D8D8" stroke-width="6"/>
<path d="M3844.9 2011.87C3820.21 1915.38 3761.89 1829.96 3679.69 1769.88C3597.48 1709.79 3496.36 1678.67 3393.2 1681.72C3290.04 1684.76 3191.08 1721.77 3112.85 1786.59C3034.61 1851.41 2981.83 1940.1 2963.32 2037.86" stroke="#D8D8D8" stroke-width="6"/>
<path d="M2951.53 1765.2C2868.08 1869.98 2826.34 2000.06 2833.87 2131.9C2841.4 2263.74 2897.7 2388.64 2992.58 2483.97C3087.47 2579.3 3214.66 2638.77 3351.14 2651.62C3487.63 2664.47 3624.38 2629.85 3736.64 2554.02" stroke="#D8D8D8" stroke-width="6"/>
<path d="M3867.11 2432C3945.81 2330.41 3985.85 2205.85 3980.53 2079.21C3975.21 1952.57 3924.84 1831.54 3837.88 1736.4C3750.91 1641.25 3632.62 1577.79 3502.84 1556.62C3373.05 1535.46 3239.66 1557.9 3125.01 1620.16" stroke="#D8D8D8" stroke-width="6"/>
<path d="M3407 2812.16C3814.59 2812.16 4145 2494.01 4145 2101.56C4145 1709.1 3814.59 1390.96 3407 1390.96C2999.41 1390.96 2669 1709.1 2669 2101.56C2669 2494.01 2999.41 2812.16 3407 2812.16Z" stroke="#D8D8D8" stroke-width="6"/>
</g>
</g>
</g>
<g clip-path="url(#clip2_8_41)">
<g clip-path="url(#clip3_8_41)">
<mask id="mask2_8_41" style="mask-type:luminance" maskUnits="userSpaceOnUse" x="49" y="315" width="1551" height="1531">
<path d="M1599.85 798.223L515.653 315.026L49.1013 1361.88L1133.3 1845.08L1599.85 798.223Z" fill="white"/>
</mask>
<g mask="url(#mask2_8_41)">
<path d="M591.201 1603.48C890.595 1736.91 1237.74 1610.73 1366.58 1321.65C1495.41 1032.57 1357.15 690.055 1057.75 556.624C758.36 423.193 411.212 549.372 282.377 838.453C153.543 1127.53 291.808 1470.05 591.201 1603.48Z" fill="#383838"/>
<path d="M754.495 1237.08C844.313 1277.11 948.457 1239.25 987.107 1152.53C1025.76 1065.81 984.278 963.052 894.46 923.023C804.642 882.994 700.498 920.847 661.847 1007.57C623.197 1094.3 664.676 1197.05 754.495 1237.08Z" fill="black"/>
<path d="M778.289 1183.69C838.168 1210.38 907.597 1185.14 933.364 1127.32C959.131 1069.51 931.478 1001 871.599 974.319C811.72 947.633 742.291 972.868 716.524 1030.68C690.757 1088.5 718.41 1157 778.289 1183.69Z" fill="#1F1F1F"/>
<path d="M1118.43 1222.35C1086.7 1293.56 1028.75 1350.06 955.794 1380.94C882.836 1411.82 800.043 1414.88 723.412 1389.53C646.781 1364.18 581.749 1312.22 540.882 1243.69C500.014 1175.16 486.213 1094.93 502.142 1018.49" stroke="#D8D8D8" stroke-width="6"/>
<path d="M1140.47 1149.61C1152.65 1078.37 1139.34 1004.56 1102.74 940.511C1066.15 876.457 1008.49 826.034 939.395 797.657C870.297 769.278 793.942 764.663 723.071 784.582C652.201 804.5 591.104 847.747 549.979 907.102" stroke="#D8D8D8" stroke-width="6"/>
<path d="M622.747 722.874C536.618 767.744 470.59 841.682 436.614 931.305C402.638 1020.93 402.961 1120.31 437.522 1211.47C472.084 1302.62 538.602 1379.52 625.034 1428.25C711.466 1476.98 812.101 1494.32 908.724 1477.13" stroke="#D8D8D8" stroke-width="6"/>
<path d="M1031.02 1434.68C1113.07 1390.51 1176.34 1319.74 1210.24 1234.22C1244.14 1148.7 1246.6 1053.62 1217.22 964.922C1187.83 876.225 1128.38 799.298 1048.83 747.032C969.287 694.764 874.472 670.333 780.28 677.833" stroke="#D8D8D8" stroke-width="6"/>
<path d="M614.529 1551.13C883.983 1671.22 1196.42 1557.66 1312.37 1297.49C1428.32 1037.32 1303.88 729.055 1034.43 608.967C764.971 488.879 452.539 602.44 336.587 862.613C220.636 1122.79 345.075 1431.05 614.529 1551.13Z" stroke="#D8D8D8" stroke-width="6"/>
</g>
</g>
</g>
<g clip-path="url(#clip4_8_41)">
<g clip-path="url(#clip5_8_41)">
<mask id="mask3_8_41" style="mask-type:luminance" maskUnits="userSpaceOnUse" x="2046" y="-518" width="1649" height="1646">
<path d="M2938.28 -517.178L2046.45 266.15L2802.79 1127.26L3694.63 343.934L2938.28 -517.178Z" fill="white"/>
</mask>
<g mask="url(#mask3_8_41)">
<path d="M3248.71 735.598C3494.98 519.288 3525.31 151.167 3316.45 -86.6222C3107.59 -324.412 2738.64 -341.824 2492.36 -125.514C2246.09 90.796 2215.76 458.917 2424.62 696.706C2633.48 934.496 3002.44 951.908 3248.71 735.598Z" fill="#383838"/>
<path d="M2983.99 434.209C3057.87 369.316 3066.97 258.879 3004.31 187.543C2941.65 116.206 2830.97 110.982 2757.08 175.875C2683.2 240.768 2674.1 351.204 2736.76 422.541C2799.42 493.878 2910.11 499.102 2983.99 434.209Z" fill="black"/>
<path d="M2945.41 390.292C2994.67 347.03 3000.74 273.406 2958.96 225.848C2917.19 178.29 2843.4 174.808 2794.15 218.07C2744.89 261.332 2738.83 334.956 2780.6 382.514C2822.37 430.072 2896.16 433.554 2945.41 390.292Z" fill="#1F1F1F"/>
<path d="M3122.6 97.3767C3174.05 155.953 3201.19 232.2 3198.77 311.385C3196.36 390.57 3164.56 467.075 3109.52 526.117C3054.49 585.159 2980.12 622.549 2900.79 631.062C2821.45 639.577 2742.79 618.609 2679.98 572.211" stroke="#D8D8D8" stroke-width="6"/>
<path d="M3065.71 46.9762C3006.07 6.15334 2933.44 -12.5723 2859.96 -6.07248C2786.48 0.427318 2716.58 31.7582 2661.94 82.6896C2607.3 133.622 2571.22 201.073 2559.72 273.786C2548.22 346.498 2562 420.073 2598.75 482.228" stroke="#D8D8D8" stroke-width="6"/>
<path d="M2461.75 339.172C2466.55 436.168 2506.16 527.041 2573.4 595.341C2640.64 663.641 2731.08 704.853 2828.34 711.519C2925.6 718.185 3023.25 689.862 3103.63 631.679C3184 573.497 3241.78 489.298 3266.51 394.324" stroke="#D8D8D8" stroke-width="6"/>
<path d="M3279.02 265.474C3273.15 172.482 3235.27 85.4331 3171.72 18.9164C3108.17 -47.6012 3022.81 -89.546 2929.95 -99.8881C2837.08 -110.23 2742.36 -88.3425 2661.65 -37.8912C2580.93 12.5593 2519.14 88.5066 2486.62 177.224" stroke="#D8D8D8" stroke-width="6"/>
<path d="M3210.89 692.542C3432.54 497.863 3459.83 166.555 3271.86 -47.4558C3083.89 -261.466 2751.83 -277.138 2530.18 -82.4585C2308.54 112.221 2281.24 443.529 2469.21 657.54C2657.18 871.55 2989.25 887.222 3210.89 692.542Z" stroke="#D8D8D8" stroke-width="6"/>
</g>
</g>
</g>
</g>
<defs>
<clipPath id="clip0_8_41">
<rect width="1640" height="1579" fill="white" transform="translate(2587 1312)"/>
</clipPath>
<clipPath id="clip1_8_41">
<rect width="1640" height="1579.11" fill="white" transform="translate(2587 1312)"/>
</clipPath>
<clipPath id="clip2_8_41">
<rect width="1187" height="1146" fill="white" transform="translate(515.653 315.026) rotate(24.0211)"/>
</clipPath>
<clipPath id="clip3_8_41">
<rect width="1187" height="1146.11" fill="white" transform="translate(515.653 315.026) rotate(24.0211)"/>
</clipPath>
<clipPath id="clip4_8_41">
<rect width="1187" height="1146" fill="white" transform="translate(2046.45 266.15) rotate(-41.294)"/>
</clipPath>
<clipPath id="clip5_8_41">
<rect width="1187" height="1146.11" fill="white" transform="translate(2046.45 266.15) rotate(-41.294)"/>
</clipPath>
</defs>
</svg>
