<svg width="2160" height="3840" viewBox="0 0 2160 3840" fill="none" xmlns="http://www.w3.org/2000/svg">
<mask id="mask0_8_41" style="mask-type:alpha" maskUnits="userSpaceOnUse" x="0" y="0" width="2160" height="3840">
<rect x="2160" width="3840" height="2160" transform="rotate(90 2160 0)" fill="#121212"/>
</mask>
<g mask="url(#mask0_8_41)">
<rect x="2160" width="3840" height="2160" transform="rotate(90 2160 0)" fill="#121212"/>
<g clip-path="url(#clip0_8_41)">
<g clip-path="url(#clip1_8_41)">
<mask id="mask1_8_41" style="mask-type:luminance" maskUnits="userSpaceOnUse" x="-732" y="2587" width="1580" height="1640">
<path d="M848 4227L848 2587H-731.112V4227H848Z" fill="white"/>
</mask>
<g mask="url(#mask1_8_41)">
<path d="M-731.112 3407C-731.112 3859.87 -377.615 4227 58.4442 4227C494.504 4227 848 3859.87 848 3407C848 2954.13 494.504 2587 58.4442 2587C-377.615 2587 -731.112 2954.13 -731.112 3407Z" fill="#383838"/>
<path d="M-178.423 3407C-178.423 3542.86 -72.3741 3653 58.4438 3653C189.262 3653 295.311 3542.86 295.311 3407C295.311 3271.14 189.262 3161 58.4438 3161C-72.3741 3161 -178.423 3271.14 -178.423 3407Z" fill="black"/>
<path d="M-97.8878 3407C-97.8878 3497.57 -27.1886 3571 60.0234 3571C147.235 3571 217.935 3497.57 217.935 3407C217.935 3316.43 147.235 3243 60.0234 3243C-27.1886 3243 -97.8878 3316.43 -97.8878 3407Z" fill="#1F1F1F"/>
<path d="M44.2324 3858C-63.1851 3858 -166.791 3816.65 -246.567 3741.95C-326.342 3667.24 -376.628 3564.48 -387.707 3453.52C-398.786 3342.55 -369.872 3231.26 -306.551 3141.14C-243.232 3051.03 -150 2988.49 -44.8674 2965.6" stroke="#D8D8D8" stroke-width="6"/>
<path d="M148.129 3844.9C244.619 3820.21 330.037 3761.89 390.122 3679.69C450.207 3597.48 481.325 3496.36 478.284 3393.2C475.242 3290.04 438.225 3191.08 373.409 3112.85C308.594 3034.61 219.902 2981.83 122.139 2963.32" stroke="#D8D8D8" stroke-width="6"/>
<path d="M394.798 2951.53C290.024 2868.08 159.941 2826.34 28.0981 2833.87C-103.745 2841.4 -228.635 2897.7 -323.968 2992.58C-419.301 3087.47 -478.773 3214.66 -491.622 3351.14C-504.472 3487.63 -469.846 3624.38 -394.016 3736.64" stroke="#D8D8D8" stroke-width="6"/>
<path d="M-272.002 3867.11C-170.407 3945.81 -45.8516 3985.85 80.7884 3980.53C207.43 3975.21 328.463 3924.84 423.604 3837.88C518.746 3750.91 582.215 3632.62 603.375 3502.83C624.537 3373.05 602.104 3239.66 539.836 3125.01" stroke="#D8D8D8" stroke-width="6"/>
<path d="M-652.157 3407C-652.157 3814.59 -334.01 4145 58.4436 4145C450.897 4145 769.044 3814.59 769.044 3407C769.044 2999.41 450.897 2669 58.4436 2669C-334.01 2669 -652.157 2999.41 -652.157 3407Z" stroke="#D8D8D8" stroke-width="6"/>
</g>
</g>
</g>
<g clip-path="url(#clip2_8_41)">
<g clip-path="url(#clip3_8_41)">
<mask id="mask2_8_41" style="mask-type:luminance" maskUnits="userSpaceOnUse" x="314" y="49" width="1531" height="1551">
<path d="M1361.78 1599.85L1844.97 515.653L798.121 49.1013L314.924 1133.3L1361.78 1599.85Z" fill="white"/>
</mask>
<g mask="url(#mask2_8_41)">
<path d="M556.522 591.201C423.091 890.595 549.27 1237.74 838.351 1366.58C1127.43 1495.41 1469.94 1357.15 1603.38 1057.75C1736.81 758.36 1610.63 411.212 1321.55 282.377C1032.47 153.543 689.953 291.808 556.522 591.201Z" fill="#383838"/>
<path d="M922.921 754.495C882.891 844.313 920.745 948.457 1007.47 987.107C1094.19 1025.76 1196.95 984.278 1236.98 894.46C1277.01 804.642 1239.15 700.498 1152.43 661.847C1065.7 623.197 962.95 664.677 922.921 754.495Z" fill="black"/>
<path d="M976.311 778.289C949.624 838.167 974.86 907.597 1032.68 933.364C1090.49 959.131 1159 931.478 1185.68 871.599C1212.37 811.72 1187.13 742.291 1129.32 716.524C1071.5 690.757 1003 718.41 976.311 778.289Z" fill="#1F1F1F"/>
<path d="M937.648 1118.43C866.437 1086.7 809.935 1028.75 779.059 955.794C748.183 882.837 745.125 800.044 770.473 723.412C795.822 646.781 847.78 581.75 916.309 540.882C984.837 500.014 1065.07 486.213 1141.51 502.142" stroke="#D8D8D8" stroke-width="6"/>
<path d="M1010.39 1140.47C1081.63 1152.65 1155.44 1139.34 1219.49 1102.74C1283.54 1066.15 1333.97 1008.49 1362.34 939.395C1390.72 870.297 1395.34 793.942 1375.42 723.071C1355.5 652.201 1312.25 591.104 1252.9 549.979" stroke="#D8D8D8" stroke-width="6"/>
<path d="M1437.13 622.747C1392.26 536.618 1318.32 470.59 1228.7 436.614C1139.07 402.638 1039.69 402.961 948.535 437.522C857.379 472.083 780.476 538.601 731.746 625.033C683.016 711.465 665.679 812.1 682.873 908.724" stroke="#D8D8D8" stroke-width="6"/>
<path d="M725.321 1031.02C769.485 1113.07 840.259 1176.34 925.781 1210.24C1011.3 1244.14 1106.38 1246.6 1195.08 1217.22C1283.77 1187.83 1360.7 1128.38 1412.97 1048.83C1465.24 969.287 1489.67 874.472 1482.17 780.28" stroke="#D8D8D8" stroke-width="6"/>
<path d="M608.864 614.529C488.776 883.983 602.337 1196.42 862.51 1312.37C1122.68 1428.32 1430.94 1303.88 1551.03 1034.43C1671.12 764.972 1557.56 452.539 1297.39 336.587C1037.21 220.636 728.952 345.075 608.864 614.529Z" stroke="#D8D8D8" stroke-width="6"/>
</g>
</g>
</g>
<g clip-path="url(#clip4_8_41)">
<g clip-path="url(#clip5_8_41)">
<mask id="mask3_8_41" style="mask-type:luminance" maskUnits="userSpaceOnUse" x="1032" y="2046" width="1646" height="1649">
<path d="M2677.18 2938.28L1893.85 2046.45L1032.74 2802.79L1816.07 3694.63L2677.18 2938.28Z" fill="white"/>
</mask>
<g mask="url(#mask3_8_41)">
<path d="M1424.4 3248.71C1640.71 3494.98 2008.83 3525.31 2246.62 3316.45C2484.41 3107.59 2501.82 2738.64 2285.51 2492.36C2069.2 2246.09 1701.08 2215.76 1463.29 2424.62C1225.5 2633.48 1208.09 3002.44 1424.4 3248.71Z" fill="#383838"/>
<path d="M1725.79 2983.99C1790.68 3057.87 1901.12 3066.97 1972.46 3004.31C2043.79 2941.65 2049.02 2830.97 1984.12 2757.08C1919.23 2683.2 1808.8 2674.1 1737.46 2736.76C1666.12 2799.42 1660.9 2910.11 1725.79 2983.99Z" fill="black"/>
<path d="M1769.71 2945.41C1812.97 2994.67 1886.59 3000.74 1934.15 2958.96C1981.71 2917.19 1985.19 2843.4 1941.93 2794.15C1898.67 2744.89 1825.04 2738.83 1777.49 2780.6C1729.93 2822.37 1726.45 2896.16 1769.71 2945.41Z" fill="#1F1F1F"/>
<path d="M2062.62 3122.6C2004.05 3174.05 1927.8 3201.19 1848.61 3198.77C1769.43 3196.36 1692.93 3164.56 1633.88 3109.52C1574.84 3054.49 1537.45 2980.12 1528.94 2900.79C1520.42 2821.45 1541.39 2742.79 1587.79 2679.98" stroke="#D8D8D8" stroke-width="6"/>
<path d="M2113.02 3065.71C2153.85 3006.07 2172.57 2933.44 2166.07 2859.96C2159.57 2786.48 2128.24 2716.58 2077.31 2661.94C2026.38 2607.3 1958.93 2571.22 1886.21 2559.72C1813.5 2548.22 1739.93 2562 1677.77 2598.75" stroke="#D8D8D8" stroke-width="6"/>
<path d="M1820.83 2461.75C1723.83 2466.55 1632.96 2506.16 1564.66 2573.4C1496.36 2640.64 1455.15 2731.08 1448.48 2828.34C1441.81 2925.6 1470.14 3023.25 1528.32 3103.63C1586.5 3184 1670.7 3241.78 1765.68 3266.51" stroke="#D8D8D8" stroke-width="6"/>
<path d="M1894.53 3279.02C1987.52 3273.15 2074.57 3235.27 2141.08 3171.72C2207.6 3108.17 2249.55 3022.81 2259.89 2929.95C2270.23 2837.08 2248.34 2742.36 2197.89 2661.65C2147.44 2580.93 2071.49 2519.14 1982.78 2486.62" stroke="#D8D8D8" stroke-width="6"/>
<path d="M1467.46 3210.89C1662.14 3432.54 1993.44 3459.83 2207.45 3271.86C2421.47 3083.89 2437.14 2751.83 2242.46 2530.18C2047.78 2308.54 1716.47 2281.24 1502.46 2469.21C1288.45 2657.19 1272.78 2989.25 1467.46 3210.89Z" stroke="#D8D8D8" stroke-width="6"/>
</g>
</g>
</g>
</g>
<defs>
<clipPath id="clip0_8_41">
<rect width="1640" height="1579" fill="white" transform="matrix(0 1 -1 0 848 2587)"/>
</clipPath>
<clipPath id="clip1_8_41">
<rect width="1640" height="1579.11" fill="white" transform="matrix(0 1 -1 0 848 2587)"/>
</clipPath>
<clipPath id="clip2_8_41">
<rect width="1187" height="1146" fill="white" transform="translate(1844.97 515.653) rotate(114.021)"/>
</clipPath>
<clipPath id="clip3_8_41">
<rect width="1187" height="1146.11" fill="white" transform="translate(1844.97 515.653) rotate(114.021)"/>
</clipPath>
<clipPath id="clip4_8_41">
<rect width="1187" height="1146" fill="white" transform="translate(1893.85 2046.45) rotate(48.706)"/>
</clipPath>
<clipPath id="clip5_8_41">
<rect width="1187" height="1146.11" fill="white" transform="translate(1893.85 2046.45) rotate(48.706)"/>
</clipPath>
</defs>
</svg>
