<svg width="600" height="600" viewBox="0 0 600 600" fill="none" xmlns="http://www.w3.org/2000/svg">
<circle cx="300" cy="300" r="300" fill="url(#paint0_linear_2_30)"/>
<g filter="url(#filter0_d_2_30)">
<path d="M340.897 371.26V357C393.026 357 435.311 314.707 435.311 262.79C435.311 210.873 393.188 168.691 341.059 168.691H124.858L189.787 233.587C189.787 233.587 193.618 237.325 188.385 242.418C183.152 247.51 179.314 244.017 179.314 244.017L96 160.811L179.78 76.9091C179.78 76.9091 184.199 73.8535 188.908 78.9461C193.618 84.0387 190.252 87.3388 190.252 87.3388L123.228 154.321H341.059C401.101 154.321 449.74 202.993 449.74 262.79C449.74 322.588 400.939 371.26 340.897 371.26Z" fill="#121212"/>
<path d="M180.225 77.2228C180.168 77.2555 180.125 77.2817 180.097 77.2989C180.097 77.299 180.097 77.2991 180.097 77.2992L96.7071 160.81L179.657 243.652C179.661 243.656 179.668 243.662 179.678 243.67C179.701 243.689 179.738 243.718 179.788 243.756C179.888 243.83 180.041 243.935 180.241 244.047C180.641 244.272 181.226 244.525 181.96 244.632C183.4 244.843 185.516 244.512 188.036 242.059C190.552 239.611 190.824 237.568 190.557 236.187C190.421 235.479 190.136 234.912 189.884 234.522C189.758 234.327 189.642 234.178 189.559 234.08C189.537 234.054 189.517 234.031 189.501 234.013C189.486 233.996 189.474 233.983 189.464 233.972C189.453 233.961 189.445 233.953 189.441 233.948L189.438 233.945L189.437 233.944L189.437 233.944L189.437 233.944L189.437 233.944L189.433 233.941L124.504 169.044L123.65 168.191H124.858H341.059C393.464 168.191 435.811 210.597 435.811 262.79C435.811 314.818 393.572 357.23 341.397 357.499V370.759C400.935 370.489 449.24 322.144 449.24 262.79C449.24 203.27 400.825 154.821 341.059 154.821H123.228H122.021L122.875 153.967L189.899 86.9852L189.901 86.9835L189.901 86.9833L189.901 86.9827L189.902 86.9823L189.902 86.9818L189.903 86.9806C189.907 86.9771 189.913 86.9706 189.922 86.9611C189.93 86.9526 189.94 86.9418 189.951 86.9286C189.966 86.9122 189.983 86.8921 190.002 86.8685C190.073 86.7833 190.172 86.6526 190.28 86.4795C190.496 86.1328 190.741 85.6213 190.854 84.967C191.075 83.6859 190.811 81.7394 188.541 79.2856C186.287 76.8485 184.153 76.4008 182.616 76.5164C181.835 76.5752 181.189 76.7808 180.739 76.9715C180.515 77.0667 180.341 77.1574 180.225 77.2228Z" stroke="#112211" stroke-opacity="0.133333"/>
<path d="M339.478 205.242V210.176C357.839 210.176 372.732 224.81 372.732 242.774C372.732 260.739 357.896 275.335 339.535 275.335H283.321L306.19 252.879C306.19 252.879 308.217 251.584 306.19 249.547C304.162 247.51 302.501 249.271 302.501 249.271L273.157 278.062L302.665 307.093C302.665 307.093 304.483 308.948 306.354 307.128C308.224 305.307 306.354 303.484 306.354 303.484L282.747 280.307H339.535C360.683 280.307 377.814 263.466 377.814 242.774C377.814 222.083 360.626 205.242 339.478 205.242Z" fill="#121212"/>
<path d="M273.871 278.062L302.851 249.627L302.858 249.621L302.863 249.616C302.863 249.616 302.863 249.616 302.863 249.616L302.863 249.615L302.864 249.615L302.864 249.614L302.87 249.609C302.874 249.605 302.878 249.601 302.884 249.595C302.891 249.588 302.9 249.581 302.91 249.572C302.947 249.538 303.006 249.489 303.082 249.435C303.237 249.325 303.455 249.2 303.719 249.127C304.206 248.992 304.944 249.004 305.835 249.9C306.295 250.362 306.489 250.746 306.558 251.041C306.625 251.33 306.581 251.573 306.492 251.777C306.4 251.988 306.256 252.161 306.127 252.286C306.064 252.347 306.008 252.393 305.969 252.423C305.95 252.437 305.935 252.448 305.927 252.454L305.92 252.459L305.919 252.459L305.918 252.459L305.918 252.459L305.918 252.46L305.918 252.46L305.877 252.486L305.839 252.523L282.971 274.978L282.098 275.835H283.321H339.535C358.163 275.835 373.232 261.024 373.232 242.774C373.232 224.689 358.376 209.942 339.978 209.679V205.745C360.63 206.008 377.314 222.532 377.314 242.774C377.314 263.181 360.416 279.807 339.535 279.807H282.747H281.524L282.397 280.664L306.003 303.841L306.004 303.841L306.004 303.842L306.004 303.842L306.004 303.842L306.005 303.842L306.014 303.852C306.023 303.861 306.038 303.877 306.057 303.898C306.095 303.942 306.151 304.008 306.213 304.093C306.34 304.266 306.486 304.505 306.582 304.785C306.677 305.063 306.719 305.369 306.653 305.69C306.588 306.007 306.41 306.375 306.005 306.769C305.6 307.164 305.222 307.337 304.895 307.399C304.565 307.462 304.252 307.417 303.97 307.32C303.687 307.223 303.446 307.076 303.273 306.95C303.187 306.888 303.121 306.833 303.078 306.795C303.056 306.776 303.041 306.761 303.031 306.752L303.022 306.743L303.022 306.743L303.022 306.743L303.022 306.743L303.021 306.742L303.021 306.742L303.016 306.737L273.871 278.062Z" stroke="#112211" stroke-opacity="0.133333"/>
<line x1="228.912" y1="166.535" x2="228.912" y2="523.015" stroke="#121212" stroke-width="14"/>
<line x1="338.605" y1="368.35" x2="440.794" y2="519.072" stroke="#112211" stroke-width="14"/>
<mask id="path-8-inside-1_2_30" fill="white">
<path d="M341.707 357C340.264 357 338.835 357.251 337.502 357.737C336.169 358.223 334.957 358.936 333.937 359.834C332.916 360.733 332.107 361.8 331.555 362.974C331.002 364.147 330.718 365.406 330.718 366.676C330.718 367.947 331.002 369.205 331.555 370.379C332.107 371.553 332.916 372.62 333.937 373.518C334.957 374.417 336.169 375.129 337.502 375.616C338.835 376.102 340.264 376.352 341.707 376.352L341.707 366.676V357Z"/>
</mask>
<path d="M341.707 357C340.264 357 338.835 357.251 337.502 357.737C336.169 358.223 334.957 358.936 333.937 359.834C332.916 360.733 332.107 361.8 331.555 362.974C331.002 364.147 330.718 365.406 330.718 366.676C330.718 367.947 331.002 369.205 331.555 370.379C332.107 371.553 332.916 372.62 333.937 373.518C334.957 374.417 336.169 375.129 337.502 375.616C338.835 376.102 340.264 376.352 341.707 376.352L341.707 366.676V357Z" fill="#121212" stroke="#112211" stroke-opacity="0.133333" stroke-width="2" mask="url(#path-8-inside-1_2_30)"/>
</g>
<defs>
<filter id="filter0_d_2_30" x="42.7" y="40.7" width="442.34" height="535.615" filterUnits="userSpaceOnUse" color-interpolation-filters="sRGB">
<feFlood flood-opacity="0" result="BackgroundImageFix"/>
<feColorMatrix in="SourceAlpha" type="matrix" values="0 0 0 0 0 0 0 0 0 0 0 0 0 0 0 0 0 0 127 0" result="hardAlpha"/>
<feOffset dx="-9" dy="9"/>
<feGaussianBlur stdDeviation="22.15"/>
<feComposite in2="hardAlpha" operator="out"/>
<feColorMatrix type="matrix" values="0 0 0 0 0.0666667 0 0 0 0 0.133333 0 0 0 0 0.0666667 0 0 0 1 0"/>
<feBlend mode="normal" in2="BackgroundImageFix" result="effect1_dropShadow_2_30"/>
<feBlend mode="normal" in="SourceGraphic" in2="effect1_dropShadow_2_30" result="shape"/>
</filter>
<linearGradient id="paint0_linear_2_30" x1="27.5" y1="390" x2="546" y2="161" gradientUnits="userSpaceOnUse">
<stop stop-color="#10B981"/>
<stop offset="1" stop-color="#4ADE80"/>
</linearGradient>
</defs>
</svg>
